<svg width="350" height="393" viewBox="0 0 350 393" fill="none" xmlns="http://www.w3.org/2000/svg">
<g clip-path="url(#clip0_311_98)">
<path d="M195.589 93.3915H193.434V34.237C193.434 25.1568 189.834 16.4485 183.425 10.0278C177.017 3.60712 168.325 1.14575e-05 159.262 1.0903e-10H34.1722C29.6847 -1.13461e-05 25.2411 0.885544 21.0951 2.6061C16.9491 4.32666 13.182 6.84853 10.0088 10.0277C6.83566 13.2069 4.31855 16.9812 2.60123 21.135C0.883909 25.2888 9.90914e-06 29.7408 0 34.2369V358.763C-4.24676e-06 363.259 0.883871 367.711 2.60118 371.865C4.31849 376.019 6.8356 379.793 10.0088 382.972C13.182 386.151 16.9491 388.673 21.095 390.394C25.241 392.114 29.6846 393 34.1721 393H159.262C168.325 393 177.016 389.393 183.425 382.972C189.834 376.552 193.434 367.843 193.434 358.763V135.499H195.589V93.3915Z" fill="#E6E6E6"/>
<path d="M160.64 8.90727H144.312C145.063 10.7517 145.35 12.7529 145.147 14.7345C144.944 16.716 144.258 18.6172 143.149 20.2705C142.04 21.9238 140.542 23.2785 138.787 24.2152C137.033 25.152 135.075 25.642 133.087 25.6422H61.4247C59.4364 25.642 57.4788 25.152 55.7241 24.2153C53.9694 23.2785 52.4716 21.9238 51.3626 20.2705C50.2536 18.6172 49.5675 16.716 49.3646 14.7344C49.1618 12.7528 49.4484 10.7517 50.1993 8.90723H34.9486C28.1805 8.90722 21.6895 11.601 16.9037 16.3958C12.1179 21.1907 9.42921 27.694 9.4292 34.475V358.525C9.42919 365.306 12.1178 371.809 16.9036 376.604C21.6895 381.399 28.1804 384.093 34.9486 384.093H160.64C163.992 384.093 167.31 383.431 170.406 382.147C173.502 380.862 176.316 378.978 178.685 376.604C181.055 374.23 182.935 371.411 184.217 368.309C185.5 365.207 186.16 361.883 186.16 358.525V358.525V34.475C186.16 31.1174 185.5 27.7927 184.217 24.6907C182.935 21.5886 181.055 18.7701 178.685 16.3959C176.316 14.0217 173.502 12.1384 170.406 10.8535C167.31 9.56859 163.992 8.90727 160.64 8.90727V8.90727Z" fill="white"/>
<path d="M175.788 263.422H25.0799C24.34 263.421 23.6306 263.126 23.1074 262.602C22.5842 262.078 22.2899 261.367 22.2891 260.626V223.171C22.2899 222.43 22.5842 221.719 23.1074 221.195C23.6306 220.671 24.34 220.376 25.0799 220.375H175.788C176.528 220.376 177.237 220.671 177.761 221.195C178.284 221.719 178.578 222.43 178.579 223.171V260.627C178.578 261.368 178.284 262.078 177.76 262.602C177.237 263.126 176.528 263.421 175.788 263.422V263.422ZM25.0799 221.493C24.6359 221.494 24.2102 221.671 23.8962 221.985C23.5823 222.3 23.4057 222.726 23.4053 223.171V260.627C23.4057 261.071 23.5823 261.498 23.8962 261.812C24.2102 262.127 24.6359 262.304 25.0799 262.304H175.788C176.232 262.304 176.658 262.127 176.972 261.812C177.286 261.498 177.462 261.071 177.463 260.627V223.171C177.462 222.726 177.286 222.3 176.972 221.985C176.658 221.671 176.232 221.494 175.788 221.493H25.0799Z" fill="#E6E6E6"/>
<path d="M44.6157 253.642C51.0894 253.642 56.3374 248.384 56.3374 241.898C56.3374 235.412 51.0894 230.154 44.6157 230.154C38.142 230.154 32.894 235.412 32.894 241.898C32.894 248.384 38.142 253.642 44.6157 253.642Z" fill="#E6E6E6"/>
<path d="M71.6875 234.069C71.175 234.078 70.6864 234.288 70.327 234.654C69.9675 235.02 69.7661 235.513 69.7661 236.027C69.7661 236.54 69.9675 237.033 70.327 237.399C70.6864 237.765 71.175 237.975 71.6875 237.984H163.787C164.305 237.994 164.806 237.797 165.179 237.437C165.553 237.077 165.768 236.583 165.778 236.064C165.788 235.545 165.592 235.044 165.232 234.669C164.873 234.295 164.38 234.08 163.862 234.07L163.851 234.069C163.83 234.069 163.808 234.069 163.787 234.069H71.6875Z" fill="#E6E6E6"/>
<path d="M71.6875 245.813C71.175 245.822 70.6864 246.032 70.327 246.398C69.9675 246.764 69.7661 247.257 69.7661 247.77C69.7661 248.284 69.9675 248.777 70.327 249.143C70.6864 249.509 71.175 249.719 71.6875 249.728H163.787C164.304 249.735 164.803 249.536 165.174 249.175C165.546 248.814 165.759 248.321 165.767 247.803C165.776 247.284 165.579 246.784 165.22 246.411C164.86 246.038 164.368 245.823 163.851 245.813C163.83 245.813 163.808 245.813 163.787 245.813H71.6875Z" fill="#E6E6E6"/>
<path d="M175.788 326.057H25.0799C24.34 326.056 23.6306 325.761 23.1074 325.237C22.5842 324.713 22.2899 324.002 22.2891 323.261V285.806C22.2899 285.064 22.5842 284.354 23.1074 283.829C23.6306 283.305 24.34 283.01 25.0799 283.01H175.788C176.528 283.01 177.237 283.305 177.761 283.829C178.284 284.354 178.578 285.064 178.579 285.806V323.261C178.578 324.002 178.284 324.713 177.76 325.237C177.237 325.761 176.528 326.056 175.788 326.057V326.057ZM25.0799 284.128C24.6359 284.128 24.2102 284.305 23.8962 284.62C23.5823 284.934 23.4057 285.361 23.4053 285.806V323.261C23.4057 323.706 23.5823 324.132 23.8962 324.447C24.2102 324.762 24.6359 324.938 25.0799 324.939H175.788C176.232 324.938 176.658 324.762 176.972 324.447C177.286 324.132 177.462 323.706 177.463 323.261V285.806C177.462 285.361 177.286 284.934 176.972 284.62C176.658 284.305 176.232 284.128 175.788 284.128H25.0799Z" fill="#E6E6E6"/>
<path d="M44.6157 316.277C51.0894 316.277 56.3374 311.019 56.3374 304.533C56.3374 298.047 51.0894 292.789 44.6157 292.789C38.142 292.789 32.894 298.047 32.894 304.533C32.894 311.019 38.142 316.277 44.6157 316.277Z" fill="#E6E6E6"/>
<path d="M71.6875 296.704C71.175 296.712 70.6864 296.922 70.327 297.289C69.9675 297.655 69.7661 298.148 69.7661 298.661C69.7661 299.175 69.9675 299.668 70.327 300.034C70.6864 300.4 71.175 300.61 71.6875 300.618H163.787C164.304 300.626 164.803 300.427 165.174 300.066C165.546 299.705 165.759 299.211 165.767 298.693C165.776 298.175 165.579 297.675 165.22 297.302C164.86 296.929 164.368 296.714 163.851 296.704C163.83 296.704 163.808 296.704 163.787 296.704H71.6875Z" fill="#E6E6E6"/>
<path d="M71.6875 308.448C71.175 308.456 70.6864 308.666 70.327 309.032C69.9675 309.399 69.7661 309.892 69.7661 310.405C69.7661 310.919 69.9675 311.412 70.327 311.778C70.6864 312.144 71.175 312.354 71.6875 312.362H163.787C164.304 312.369 164.803 312.171 165.174 311.81C165.546 311.449 165.759 310.955 165.767 310.437C165.776 309.919 165.579 309.418 165.22 309.045C164.86 308.673 164.368 308.458 163.851 308.448C163.83 308.447 163.808 308.447 163.787 308.448H71.6875Z" fill="#E6E6E6"/>
<path d="M97.2623 185.697C83.2046 185.703 69.7204 180.114 59.7759 170.159C49.8315 160.204 44.2415 146.699 44.2356 132.614V132.57C44.2356 132.459 44.2356 132.341 44.2421 132.23C44.4038 103.136 68.1899 79.442 97.2623 79.442C111.326 79.4404 124.814 85.0362 134.76 94.9984C144.705 104.961 150.294 118.473 150.295 132.563C150.297 146.654 144.712 160.167 134.768 170.132C124.825 180.096 111.338 185.695 97.2744 185.697H97.2623V185.697ZM97.2623 80.5593C83.5574 80.59 70.4182 86.0379 60.6996 95.7192C50.981 105.401 45.4681 118.533 45.3588 132.264C45.3529 132.383 45.3529 132.48 45.3529 132.568C45.3516 142.856 48.3952 152.913 54.0989 161.468C59.8025 170.022 67.91 176.69 77.3961 180.628C86.8822 184.566 97.3209 185.598 107.392 183.592C117.463 181.586 126.715 176.633 133.976 169.36C141.238 162.086 146.184 152.819 148.188 142.729C150.193 132.639 149.166 122.18 145.237 112.675C141.309 103.17 134.656 95.0457 126.119 89.3291C117.582 83.6125 107.545 80.5606 97.2764 80.5593H97.2623V80.5593Z" fill="#E6E6E6"/>
<path d="M169.839 249.934C181.746 249.934 191.398 240.264 191.398 228.334C191.398 216.405 181.746 206.734 169.839 206.734C157.933 206.734 148.28 216.405 148.28 228.334C148.28 240.264 157.933 249.934 169.839 249.934Z" fill="white"/>
<path d="M162.352 238.052C162.315 238.052 162.278 238.052 162.241 238.051H150.653C149.182 238.028 147.78 237.427 146.748 236.377C145.716 235.327 145.138 233.913 145.137 232.44C145.137 230.966 145.714 229.552 146.745 228.501C147.776 227.45 149.178 226.848 150.648 226.823H162.246C162.303 226.822 162.365 226.822 162.426 226.823C163.905 226.844 165.316 227.449 166.352 228.508C167.387 229.567 167.962 230.993 167.953 232.475C167.943 233.957 167.349 235.375 166.299 236.42C165.25 237.465 163.831 238.052 162.352 238.052V238.052Z" fill="#04485F"/>
<path d="M350 391.686H175.354V392.896H350V391.686Z" fill="#3F3D56"/>
<path d="M186.114 289.295C185.977 289.081 185.863 288.853 185.775 288.615L182.992 281.148C182.668 280.276 182.702 279.311 183.088 278.464C183.473 277.618 184.178 276.959 185.048 276.632L247.161 253.395C248.031 253.07 248.995 253.105 249.84 253.491C250.685 253.877 251.343 254.584 251.668 255.455L254.451 262.922C254.612 263.354 254.687 263.813 254.67 264.274C254.654 264.734 254.547 265.187 254.356 265.607C254.165 266.026 253.894 266.404 253.557 266.718C253.221 267.032 252.826 267.277 252.395 267.438L190.282 290.675C189.534 290.955 188.714 290.97 187.956 290.719C187.198 290.468 186.548 289.966 186.114 289.295V289.295Z" fill="#04485F"/>
<path d="M246.963 251.466L221.705 261.557C220.909 261.797 220.236 262.334 219.825 263.058C219.415 263.782 219.298 264.637 219.499 265.445L222.43 277.203C222.546 277.668 222.763 278.101 223.066 278.471C223.369 278.841 223.75 279.14 224.182 279.345C224.613 279.55 225.085 279.657 225.563 279.658C226.041 279.659 226.513 279.553 226.945 279.35L252.273 267.405C253.075 267.104 253.726 266.496 254.082 265.715C254.438 264.934 254.47 264.043 254.173 263.238L251.128 253.369C250.827 252.564 250.22 251.911 249.439 251.554C248.658 251.198 247.768 251.166 246.963 251.466V251.466Z" fill="#2F2E41"/>
<path d="M293.187 324.723C292.394 324.814 291.594 324.632 290.919 324.205C290.243 323.779 289.733 323.135 289.472 322.379L267.852 259.583C267.702 259.147 267.639 258.686 267.667 258.226C267.695 257.766 267.813 257.316 268.014 256.902C268.215 256.487 268.496 256.117 268.841 255.811C269.185 255.505 269.586 255.271 270.021 255.12L277.542 252.521C278.42 252.218 279.382 252.277 280.217 252.685C281.053 253.092 281.692 253.815 281.996 254.695L303.616 317.491C303.918 318.371 303.859 319.336 303.453 320.172C303.046 321.009 302.325 321.65 301.447 321.954L293.927 324.553C293.687 324.636 293.439 324.693 293.187 324.723V324.723Z" fill="#04485F"/>
<path d="M283.607 253.62L291.905 279.565C292.227 280.332 292.241 281.195 291.945 281.973C291.649 282.751 291.065 283.385 290.315 283.743L279.395 288.958C278.963 289.164 278.492 289.272 278.014 289.273C277.536 289.275 277.064 289.17 276.631 288.967C276.199 288.764 275.816 288.467 275.512 288.098C275.207 287.73 274.988 287.298 274.87 286.834L267.954 259.657C267.676 258.844 267.731 257.955 268.106 257.183C268.481 256.411 269.146 255.819 269.955 255.537L279.492 251.612C280.303 251.332 281.192 251.387 281.964 251.763C282.736 252.14 283.327 252.808 283.607 253.62V253.62Z" fill="#2F2E41"/>
<path d="M258.483 392.042H250.528C249.599 392.041 248.708 391.67 248.052 391.012C247.395 390.354 247.025 389.462 247.024 388.532V322.104C247.025 321.173 247.395 320.281 248.052 319.623C248.708 318.965 249.599 318.595 250.528 318.594H258.483C259.412 318.595 260.302 318.965 260.959 319.623C261.616 320.281 261.985 321.173 261.986 322.104V388.532C261.985 389.462 261.616 390.354 260.959 391.012C260.302 391.67 259.412 392.041 258.483 392.042Z" fill="#2F2E41"/>
<path d="M274.217 392.042H266.261C265.333 392.041 264.442 391.67 263.785 391.012C263.129 390.354 262.759 389.462 262.758 388.532V322.104C262.759 321.173 263.129 320.281 263.785 319.623C264.442 318.965 265.333 318.595 266.261 318.594H274.217C275.145 318.595 276.036 318.965 276.693 319.623C277.349 320.281 277.719 321.173 277.72 322.104V388.532C277.719 389.462 277.349 390.354 276.693 391.012C276.036 391.67 275.145 392.041 274.217 392.042Z" fill="#2F2E41"/>
<path d="M280.773 329.913H244.627C243.627 329.912 242.668 329.514 241.961 328.805C241.253 328.096 240.856 327.135 240.854 326.133V267.303C240.854 261.499 243.156 255.932 247.253 251.827C251.35 247.722 256.906 245.416 262.7 245.416C268.494 245.416 274.05 247.722 278.147 251.827C282.244 255.932 284.545 261.499 284.545 267.303V326.133C284.544 327.135 284.146 328.096 283.439 328.805C282.732 329.514 281.773 329.912 280.773 329.913Z" fill="#CCCCCC"/>
<path d="M286.213 344.304H267.888V240.54L268.228 240.633C273.389 242.053 277.943 245.129 281.192 249.39C284.44 253.652 286.204 258.863 286.213 264.225V344.304Z" fill="#2F2E41"/>
<path d="M256.022 344.304H237.697V264.225C237.706 258.863 239.47 253.652 242.719 249.39C245.967 245.129 250.521 242.053 255.682 240.633L256.022 240.54V344.304Z" fill="#2F2E41"/>
<path d="M262.426 233.247C278.357 233.247 291.272 220.308 291.272 204.347C291.272 188.386 278.357 175.447 262.426 175.447C246.495 175.447 233.581 188.386 233.581 204.347C233.581 220.308 246.495 233.247 262.426 233.247Z" fill="#04485F"/>
<path d="M295.039 197.693C295.039 197.693 296.655 152.873 275.635 167.453C275.635 167.453 263.508 126.683 233.865 187.703L225.241 196.343C225.241 196.343 264.047 190.943 300.159 207.683L295.039 197.693Z" fill="#2F2E41"/>
<path d="M262.866 218.66C261.085 218.61 258.867 218.548 257.159 217.298C256.65 216.91 256.232 216.416 255.934 215.849C255.636 215.283 255.465 214.658 255.434 214.018C255.403 213.564 255.477 213.108 255.651 212.688C255.825 212.267 256.094 211.892 256.437 211.592C257.329 210.837 258.632 210.66 260.036 211.073L258.581 200.421L259.649 200.275L261.359 212.797L260.468 212.387C259.434 211.912 258.014 211.67 257.132 212.417C256.916 212.612 256.747 212.855 256.639 213.126C256.532 213.397 256.488 213.69 256.511 213.981C256.537 214.456 256.665 214.921 256.887 215.343C257.108 215.765 257.418 216.134 257.794 216.426C259.124 217.398 260.892 217.524 262.896 217.58L262.866 218.66Z" fill="#D3D3D3"/>
<path d="M253.3 201.34H247.494V202.42H253.3V201.34Z" fill="white"/>
<path d="M271.625 201.34H265.819V202.42H271.625V201.34Z" fill="white"/>
<path d="M198.113 292.05C197.335 292.411 196.445 292.449 195.64 292.153C194.834 291.858 194.179 291.254 193.818 290.474L175.217 250.307C174.857 249.527 174.82 248.636 175.114 247.829C175.409 247.023 176.012 246.366 176.79 246.005C177.568 245.643 178.457 245.606 179.263 245.901C180.068 246.197 180.723 246.8 181.084 247.58L199.685 287.747C200.046 288.527 200.083 289.418 199.788 290.225C199.493 291.032 198.891 291.688 198.113 292.05Z" fill="#3F3D56"/>
<path d="M179.002 248.829C178.43 248.829 177.882 248.601 177.477 248.196C177.073 247.791 176.846 247.242 176.846 246.669V219.154H149.897C149.325 219.154 148.777 218.927 148.373 218.522C147.968 218.117 147.741 217.567 147.741 216.994C147.741 216.422 147.968 215.872 148.373 215.467C148.777 215.062 149.325 214.834 149.897 214.834H179.002C179.574 214.834 180.122 215.062 180.526 215.467C180.931 215.872 181.158 216.422 181.158 216.994V246.669C181.158 247.242 180.931 247.791 180.526 248.196C180.122 248.601 179.574 248.829 179.002 248.829V248.829Z" fill="#04485F"/>
<path d="M179.512 251.882C174.87 254.04 169.694 254.77 164.639 253.98C159.583 253.191 154.874 250.917 151.109 247.446C147.343 243.975 144.689 239.464 143.482 234.482C142.276 229.5 142.571 224.271 144.33 219.457C146.089 214.644 149.234 210.46 153.366 207.437C157.498 204.414 162.433 202.686 167.545 202.472C172.657 202.259 177.718 203.568 182.087 206.236C186.457 208.904 189.938 212.81 192.092 217.461C194.971 223.698 195.264 230.825 192.906 237.278C190.547 243.731 185.73 248.983 179.512 251.882V251.882ZM160.457 210.735C156.976 212.353 154.052 214.969 152.055 218.253C150.058 221.536 149.077 225.339 149.237 229.18C149.397 233.022 150.691 236.729 152.954 239.834C155.217 242.94 158.348 245.302 161.952 246.624C165.556 247.946 169.47 248.168 173.199 247.261C176.928 246.355 180.306 244.361 182.904 241.531C185.502 238.701 187.204 235.163 187.795 231.364C188.386 227.565 187.84 223.676 186.225 220.188C184.054 215.515 180.123 211.896 175.292 210.124C170.461 208.351 165.126 208.571 160.457 210.735V210.735Z" fill="#3F3D56"/>
</g>
<defs>
<clipPath id="clip0_311_98">
<rect width="350" height="393" fill="white"/>
</clipPath>
</defs>
</svg>
